<svg xmlns="http://www.w3.org/2000/svg" xmlns:xlink="http://www.w3.org/1999/xlink" id="Ebene_1" x="0" y="0" enable-background="new 0 0 304 210.5" version="1.1" viewBox="0 0 304 210.5" xml:space="preserve"><g><polygon fill="#44484B" points="143.3 200.7 13.7 200.7 13.7 9.8 29.2 9.8 29.2 185 143.3 185"/><polygon fill="#44484B" points="290.3 200.7 153 200.7 153 113.1 234.5 113.1 234.5 128.6 168.4 128.6 168.4 185.2 274.8 185.2 274.8 25.4 160.7 25.4 160.7 9.9 290.3 9.9"/><g><linearGradient id="SVGID_1_" x1="120.64" x2="50.385" y1="166.174" y2="95.92" gradientUnits="userSpaceOnUse"><stop offset="0" style="stop-color:#242322"/><stop offset=".307" style="stop-color:#464848"/><stop offset=".772" style="stop-color:#747c7c"/><stop offset="1" style="stop-color:#869090"/></linearGradient><polygon fill="url(#SVGID_1_)" points="42.1 104.3 42.1 118 51.6 118 51.6 162.6 77.1 162.6 77.1 124 86.8 124 86.8 162.6 124.2 162.6 124.2 104.3"/><linearGradient id="SVGID_2_" x1="115.215" x2="51.65" y1="79.143" y2="15.579" gradientUnits="userSpaceOnUse"><stop offset="0" style="stop-color:#242322"/><stop offset=".307" style="stop-color:#464848"/><stop offset=".772" style="stop-color:#747c7c"/><stop offset="1" style="stop-color:#869090"/></linearGradient><path fill="url(#SVGID_2_)" d="M44.4,58.2c1.7-3.8,4.2-6.8,7.7-8.9c3.5-2.2,7.1-3.2,10.9-3.2c3.5,0,6.8,1,9.9,2.9s5.6,4.8,7.5,8.6 c1.5-5,4-8.8,7.5-11.5c3.5-2.7,7.7-4,12.5-4c3.9,0,7.4,0.8,10.8,2.4c3.3,1.6,5.9,3.6,7.7,6c1.8,2.4,3.2,5.4,4.1,9 c0.8,3,1.2,6.5,1.3,10.6v-45H42.1v43.7C42.4,64.6,43.1,61.1,44.4,58.2z"/><linearGradient id="SVGID_3_" x1="77.671" x2="50.455" y1="92.185" y2="64.968" gradientUnits="userSpaceOnUse"><stop offset="0" style="stop-color:#242322"/><stop offset=".307" style="stop-color:#464848"/><stop offset=".772" style="stop-color:#747c7c"/><stop offset="1" style="stop-color:#869090"/></linearGradient><path fill="url(#SVGID_3_)" d="M75.5,65.2c-0.8-2.8-2.2-4.9-4.1-6.3c-1.9-1.4-4.3-2.1-7.2-2.1c-2.7,0-5.1,0.7-7.2,2 c-2.1,1.3-3.5,3.2-4.3,5.6c-0.8,2.4-1.2,6.6-1.2,12.5v16.5h24.9V75.5C76.5,70.7,76.2,67.3,75.5,65.2z"/><linearGradient id="SVGID_4_" x1="115.446" x2="85.405" y1="92.443" y2="62.402" gradientUnits="userSpaceOnUse"><stop offset="0" style="stop-color:#242322"/><stop offset=".307" style="stop-color:#464848"/><stop offset=".772" style="stop-color:#747c7c"/><stop offset="1" style="stop-color:#869090"/></linearGradient><path fill="url(#SVGID_4_)" d="M114.1,65.4c-0.5-2.5-1.2-4.6-2.2-6.3c-1-1.7-2.6-3.1-4.6-4.2c-2-1.1-4.3-1.6-6.9-1.6 c-3.1,0-5.7,0.8-8,2.4c-2.3,1.6-3.9,3.8-4.8,6.5c-0.9,2.8-1.4,6.8-1.4,12v19h28.3V72.9C114.5,69.3,114.4,66.9,114.1,65.4z"/></g><g><path fill="#E9EAEB" d="M124.3,173.5l-82.4,0V118h9.7v44.7h25.5V124h9.7v38.6l37.4,0V173.5z"/><path fill="#E9EAEB" d="M124.3,104.3l-82.4,0V73.4c0-6.3,0.8-11.3,2.5-15.1c1.7-3.8,4.2-6.8,7.7-8.9c3.5-2.2,7.1-3.2,10.9-3.2 c3.5,0,6.8,1,9.9,2.9s5.6,4.8,7.5,8.6c1.5-5,4-8.8,7.5-11.5c3.5-2.7,7.7-4,12.5-4c3.9,0,7.4,0.8,10.8,2.4c3.3,1.6,5.9,3.6,7.7,6 c1.8,2.4,3.2,5.4,4.1,9c0.9,3.6,1.4,8,1.4,13.3V104.3z M76.5,93.4V75.5c0-4.8-0.3-8.3-1-10.4c-0.8-2.8-2.2-4.9-4.1-6.3 c-1.9-1.4-4.3-2.1-7.2-2.1c-2.7,0-5.1,0.7-7.2,2c-2.1,1.3-3.5,3.2-4.3,5.6c-0.8,2.4-1.2,6.6-1.2,12.5v16.5H76.5z M114.5,93.4V72.9 c0-3.5-0.1-6-0.4-7.4c-0.5-2.5-1.2-4.6-2.2-6.3c-1-1.7-2.6-3.1-4.6-4.2c-2-1.1-4.3-1.6-6.9-1.6c-3.1,0-5.7,0.8-8,2.4 c-2.3,1.6-3.9,3.8-4.8,6.5c-0.9,2.8-1.4,6.8-1.4,12v19H114.5z"/></g></g></svg>